<svg width="171" height="54" viewBox="0 0 171 54" fill="none" xmlns="http://www.w3.org/2000/svg">
<path d="M155.622 16.8037C157.413 18.11 159.567 18.5246 161.575 18.1346C162.26 18.0021 162.728 17.3404 162.634 16.6403C162.357 14.5846 161.283 12.6438 159.492 11.3379C157.7 10.0317 155.546 9.61703 153.538 10.007C152.854 10.1399 152.385 10.8013 152.48 11.5014C152.756 13.5571 153.831 15.4975 155.622 16.8037Z" fill="#55B953"/>
<path d="M152.415 3.31842C153.173 4.04209 154.157 4.37164 155.12 4.31528C155.449 4.29625 155.708 4.01596 155.707 3.6823C155.702 2.70261 155.318 1.72701 154.559 1.00297C153.801 0.279295 152.817 -0.0498836 151.854 0.0060992C151.525 0.0255066 151.266 0.305794 151.267 0.639451C151.271 1.61878 151.656 2.59475 152.415 3.31842Z" fill="#55B953"/>
<path d="M169.853 27.3875C169.094 28.1112 168.111 28.4407 167.147 28.3844C166.819 28.365 166.559 28.085 166.561 27.7514C166.565 26.7717 166.949 25.7961 167.708 25.0721C168.467 24.3484 169.45 24.0192 170.413 24.0752C170.742 24.0946 171.001 24.3749 171 24.7085C170.996 25.6879 170.611 26.6638 169.853 27.3875Z" fill="#55B953"/>
<path d="M149.889 8.09813C151.117 8.1347 152.24 7.64467 153.047 6.82956C153.322 6.55188 153.335 6.09842 153.077 5.80433C152.317 4.94256 151.226 4.38647 149.997 4.34989C148.769 4.31294 147.646 4.80298 146.839 5.61809C146.564 5.89614 146.55 6.3496 146.809 6.64332C147.568 7.50508 148.66 8.06155 149.889 8.09813Z" fill="#55B953"/>
<path d="M146.174 3.21373C147.039 3.23949 147.829 2.89463 148.398 2.32062C148.591 2.12505 148.601 1.80558 148.419 1.59882C147.884 0.991962 147.115 0.600456 146.25 0.57433C145.385 0.548578 144.595 0.893806 144.027 1.46744C143.833 1.66301 143.823 1.98248 144.006 2.18925C144.54 2.7961 145.309 3.18798 146.174 3.21373Z" fill="#55B953"/>
<path d="M162.505 5.48825C162.988 6.94343 162.82 8.46094 162.164 9.71831C161.94 10.1468 161.418 10.3248 160.984 10.121C159.712 9.522 158.676 8.4154 158.193 6.96022C157.711 5.50467 157.878 3.98754 158.535 2.73016C158.759 2.30171 159.281 2.12368 159.714 2.32746C160.986 2.92647 162.023 4.03307 162.505 5.48825Z" fill="#55B953"/>
<path d="M162.606 21.3542C164.02 21.9009 165.068 22.9963 165.607 24.3097C165.791 24.7575 165.595 25.2797 165.164 25.4898C163.9 26.106 162.399 26.2153 160.986 25.6686C159.572 25.1218 158.523 24.0264 157.985 22.7127C157.801 22.2652 157.997 21.7431 158.428 21.5329C159.691 20.9167 161.192 20.8074 162.606 21.3542Z" fill="#55B953"/>
<path d="M35.8725 23.1274H38.439V25.3175H38.4971C39.0219 24.4296 39.6636 23.7836 40.4219 23.379C41.1802 22.9748 42.1132 22.7721 43.2212 22.7721C44.0766 22.7721 44.8981 23.0043 45.6858 23.4678C46.4732 23.9317 47.0608 24.6767 47.4499 25.7023C47.7022 25.1697 48.0232 24.7159 48.4123 24.3408C48.801 23.9664 49.2092 23.66 49.6372 23.4234C50.0646 23.1868 50.4923 23.0192 50.9203 22.9203C51.3476 22.8218 51.7268 22.7721 52.0574 22.7721C53.0098 22.7721 53.8119 22.9203 54.4635 23.2163C55.1145 23.5122 55.6444 23.9168 56.0526 24.4296C56.4611 24.9431 56.7572 25.5496 56.9422 26.2498C57.1268 26.9503 57.2191 27.7147 57.2191 28.5436V38.2212H54.4779V29.224C54.4779 28.7503 54.4437 28.267 54.376 27.774C54.3076 27.281 54.1763 26.832 53.9822 26.4274C53.7876 26.0232 53.5159 25.6873 53.1658 25.4212C52.8157 25.1548 52.3681 25.0215 51.8242 25.0215C51.1244 25.0215 50.5265 25.1798 50.0307 25.4951C49.535 25.8109 49.1312 26.2304 48.8205 26.7529C48.5094 27.2761 48.281 27.8729 48.1354 28.5436C47.9894 29.2146 47.9166 29.9047 47.9166 30.615V38.2212H45.1754V29.224C45.1754 28.7503 45.1412 28.267 45.0732 27.774C45.0047 27.281 44.8738 26.832 44.6797 26.4274C44.4848 26.0232 44.213 25.6873 43.8629 25.4212C43.5128 25.1548 43.0656 25.0215 42.5217 25.0215C41.8215 25.0215 41.2239 25.1798 40.7282 25.4951C40.2321 25.8109 39.8284 26.2304 39.518 26.7529C39.2065 27.2761 38.9781 27.8729 38.8325 28.5436C38.6865 29.2146 38.6137 29.9047 38.6137 30.615V38.2212H35.8725V23.1274Z" fill="#55B953"/>
<path d="M69.263 29.2233C69.263 28.6516 69.1803 28.1089 69.0152 27.5957C68.8497 27.0829 68.6118 26.634 68.3007 26.2492C67.9895 25.8644 67.6008 25.5639 67.1342 25.3464C66.6675 25.1295 66.1427 25.0209 65.5595 25.0209C64.8788 25.0209 64.3007 25.1493 63.8244 25.4057C63.3478 25.6625 62.9496 25.9931 62.6285 26.3973C62.3079 26.8019 62.0648 27.2509 61.8997 27.7435C61.7342 28.2369 61.6228 28.7307 61.5643 29.2233H69.263ZM71.0418 37.5991C70.7697 37.698 70.488 37.8014 70.1964 37.9096C69.9048 38.0186 69.5789 38.1224 69.2193 38.2205C68.8593 38.3191 68.4415 38.403 67.9653 38.4721C67.4887 38.5411 66.9492 38.5758 66.3468 38.5758C65.0248 38.5758 63.8829 38.3784 62.9202 37.9839C61.9581 37.5894 61.1605 37.0371 60.5291 36.3265C59.8969 35.6162 59.4255 34.7578 59.1147 33.7516C58.8036 32.7454 58.6481 31.631 58.6481 30.4072C58.6481 29.2827 58.8128 28.2567 59.1438 27.3296C59.474 26.4022 59.9458 25.5983 60.5581 24.9172C61.1708 24.2368 61.9041 23.709 62.7598 23.334C63.6152 22.9592 64.568 22.7715 65.6179 22.7715C66.8617 22.7715 67.902 22.9891 68.7383 23.4228C69.5738 23.8572 70.2446 24.454 70.7502 25.2135C71.2555 25.9734 71.6203 26.8758 71.8439 27.9216C72.0671 28.9669 72.1793 30.0918 72.1793 31.2951H61.5643C61.5643 32.0453 61.6956 32.726 61.9581 33.337C62.2203 33.949 62.58 34.4768 63.0371 34.9209C63.4935 35.3647 64.0186 35.7103 64.6118 35.9566C65.2046 36.2037 65.822 36.3265 66.4638 36.3265C66.9106 36.3265 67.3721 36.2727 67.8487 36.1637C68.3249 36.0555 68.7721 35.9271 69.1902 35.7789C69.608 35.6311 69.9776 35.468 70.2983 35.2908C70.6193 35.1131 70.8672 34.9552 71.0418 34.8172V37.5991Z" fill="#55B953"/>
<path d="M73.6668 23.1274H76.3205V25.5246H76.379C76.7872 24.6569 77.4384 23.981 78.3328 23.4973C79.2268 23.014 80.1991 22.7721 81.249 22.7721C83.1738 22.7721 84.5834 23.345 85.4777 24.4889C86.3714 25.6332 86.8189 27.222 86.8189 29.2534V38.2212H84.0777V30.4078C84.0777 28.632 83.8541 27.3105 83.407 26.442C82.9598 25.5743 82.1334 25.1006 80.9283 25.0215C80.1506 25.0215 79.4746 25.1745 78.9013 25.4802C78.328 25.7866 77.8562 26.2106 77.4873 26.7529C77.1178 27.2959 76.8456 27.9513 76.6706 28.7209C76.4955 29.4904 76.4084 30.3294 76.4084 31.2367V38.2212H73.6668V23.1274Z" fill="#55B953"/>
<path d="M98.1334 31.029C97.8418 31.029 97.5501 31.0193 97.2585 30.9991C96.9669 30.9797 96.6753 30.9696 96.3837 30.9696C96.0141 30.9696 95.5378 30.9946 94.9546 31.0435C94.3717 31.0932 93.8028 31.2167 93.2486 31.4134C92.6944 31.6112 92.2178 31.9019 91.8195 32.2867C91.4209 32.6711 91.222 33.1993 91.222 33.8699C91.222 34.2652 91.3091 34.6149 91.4842 34.9209C91.6596 35.2269 91.878 35.4834 92.1406 35.6901C92.4028 35.8976 92.6992 36.0555 93.0298 36.1637C93.3604 36.2727 93.6811 36.3265 93.9922 36.3265C95.3529 36.3265 96.3836 35.9469 97.0835 35.1874C97.7833 34.4275 98.1334 33.4855 98.1334 32.3606V31.029ZM89.997 24.1924C90.6773 23.7781 91.4261 23.4377 92.2425 23.1712C93.0589 22.9048 93.9433 22.7715 94.8961 22.7715C97.0349 22.7715 98.5659 23.2948 99.4896 24.3405C100.412 25.3863 100.875 26.9448 100.875 29.0162V35.2613C100.875 36.1294 100.884 36.7855 100.904 37.2293C100.923 37.6734 100.952 38.0037 100.991 38.2209H98.425V36.2675H98.3665C98.2106 36.5041 97.997 36.7557 97.7252 37.0221C97.4523 37.2882 97.1272 37.5357 96.7481 37.7618C96.3689 37.9888 95.9317 38.1813 95.4356 38.3392C94.9399 38.4967 94.3809 38.5758 93.7587 38.5758C92.9618 38.5758 92.2277 38.487 91.557 38.3097C90.8866 38.1317 90.3077 37.8507 89.822 37.4659C89.3358 37.0815 88.9618 36.5929 88.6996 36.001C88.437 35.4091 88.3054 34.6988 88.3054 33.8699C88.3054 32.9231 88.5337 32.1341 88.9912 31.5026C89.4476 30.8711 90.0161 30.3632 90.6968 29.9784C91.3772 29.5932 92.1259 29.3174 92.9426 29.1495C93.7587 28.9823 94.5173 28.8979 95.2168 28.8979H96.6753C97.1026 28.8979 97.5891 28.9181 98.1334 28.9569C98.1334 27.6551 97.8657 26.6739 97.3313 26.0125C96.7963 25.3516 95.839 25.0209 94.4589 25.0209C93.6811 25.0209 92.9081 25.1594 92.1406 25.4356C91.372 25.7117 90.7067 26.0864 90.1426 26.5601L89.997 24.1924Z" fill="#55B953"/>
<path d="M103.323 23.1274H105.977V25.5246H106.035C106.444 24.6569 107.095 23.981 107.989 23.4973C108.883 23.014 109.856 22.7721 110.905 22.7721C112.83 22.7721 114.24 23.345 115.134 24.4889C116.028 25.6332 116.476 27.222 116.476 29.2534V38.2212H113.734V30.4078C113.734 28.632 113.511 27.3105 113.063 26.442C112.616 25.5743 111.79 25.1006 110.585 25.0215C109.807 25.0215 109.131 25.1745 108.558 25.4802C107.984 25.7866 107.513 26.2106 107.144 26.7529C106.774 27.2959 106.502 27.9513 106.327 28.7209C106.152 29.4904 106.064 30.3294 106.064 31.2367V38.2212H103.323V23.1274Z" fill="#55B953"/>
<path d="M127.791 31.029C127.5 31.029 127.208 31.0193 126.916 30.9991C126.625 30.9797 126.333 30.9696 126.041 30.9696C125.672 30.9696 125.196 30.9946 124.612 31.0435C124.029 31.0932 123.461 31.2167 122.906 31.4134C122.352 31.6112 121.876 31.9019 121.477 32.2867C121.079 32.6711 120.88 33.1993 120.88 33.8699C120.88 34.2652 120.967 34.6149 121.142 34.9209C121.317 35.2269 121.536 35.4834 121.798 35.6901C122.061 35.8976 122.357 36.0555 122.688 36.1637C123.018 36.2727 123.339 36.3265 123.65 36.3265C125.011 36.3265 126.041 35.9469 126.741 35.1874C127.441 34.4275 127.791 33.4855 127.791 32.3606V31.029ZM119.655 24.1924C120.335 23.7781 121.084 23.4377 121.9 23.1712C122.717 22.9048 123.601 22.7715 124.554 22.7715C126.693 22.7715 128.224 23.2948 129.147 24.3405C130.07 25.3863 130.532 26.9448 130.532 29.0162V35.2613C130.532 36.1294 130.542 36.7855 130.561 37.2293C130.58 37.6734 130.61 38.0037 130.649 38.2209H128.083V36.2675H128.024C127.868 36.5041 127.655 36.7557 127.383 37.0221C127.11 37.2882 126.785 37.5357 126.406 37.7618C126.027 37.9888 125.589 38.1813 125.093 38.3392C124.598 38.4967 124.039 38.5758 123.416 38.5758C122.62 38.5758 121.885 38.487 121.215 38.3097C120.544 38.1317 119.965 37.8507 119.48 37.4659C118.994 37.0815 118.62 36.5929 118.357 36.001C118.095 35.4091 117.963 34.6988 117.963 33.8699C117.963 32.9231 118.191 32.1341 118.649 31.5026C119.105 30.8711 119.674 30.3632 120.355 29.9784C121.035 29.5932 121.784 29.3174 122.6 29.1495C123.416 28.9823 124.175 28.8979 124.875 28.8979H126.333C126.76 28.8979 127.247 28.9181 127.791 28.9569C127.791 27.6551 127.523 26.6739 126.989 26.0125C126.454 25.3516 125.497 25.0209 124.117 25.0209C123.339 25.0209 122.566 25.1594 121.798 25.4356C121.03 25.7117 120.364 26.0864 119.8 26.5601L119.655 24.1924Z" fill="#55B953"/>
<path d="M132.952 23.1274H135.518V25.3175H135.576C136.101 24.4296 136.743 23.7836 137.501 23.379C138.259 22.9748 139.192 22.7721 140.3 22.7721C141.156 22.7721 141.977 23.0043 142.765 23.4678C143.552 23.9317 144.14 24.6767 144.529 25.7023C144.782 25.1697 145.102 24.7159 145.492 24.3408C145.88 23.9664 146.288 23.66 146.716 23.4234C147.144 23.1868 147.571 23.0192 148 22.9203C148.427 22.8218 148.806 22.7721 149.137 22.7721C150.089 22.7721 150.891 22.9203 151.543 23.2163C152.194 23.5122 152.724 23.9168 153.132 24.4296C153.54 24.9431 153.836 25.5496 154.021 26.2498C154.206 26.9503 154.299 27.7147 154.299 28.5436V38.2212H151.557V29.224C151.557 28.7503 151.523 28.267 151.455 27.774C151.387 27.281 151.256 26.832 151.061 26.4274C150.867 26.0232 150.595 25.6873 150.245 25.4212C149.895 25.1548 149.447 25.0215 148.903 25.0215C148.204 25.0215 147.606 25.1798 147.11 25.4951C146.614 25.8109 146.211 26.2304 145.9 26.7529C145.589 27.2761 145.36 27.8729 145.215 28.5436C145.069 29.2146 144.996 29.9047 144.996 30.615V38.2212H142.255V29.224C142.255 28.7503 142.22 28.267 142.153 27.774C142.084 27.281 141.953 26.832 141.759 26.4274C141.564 26.0232 141.292 25.6873 140.943 25.4212C140.592 25.1548 140.145 25.0215 139.601 25.0215C138.901 25.0215 138.303 25.1798 137.807 25.4951C137.311 25.8109 136.908 26.2304 136.597 26.7529C136.286 27.2761 136.057 27.8729 135.912 28.5436C135.766 29.2146 135.693 29.9047 135.693 30.615V38.2212H132.952V23.1274Z" fill="#55B953"/>
<path d="M33.3853 19.7343C32.3545 19.7347 31.3237 19.7347 30.2929 19.7347H30.0716V38.2307C30.2907 38.2307 30.4996 38.2303 30.7085 38.2307C31.6621 38.2329 32.616 38.2351 33.5696 38.2374V19.7291C33.5081 19.7309 33.4467 19.7343 33.3853 19.7343Z" fill="#315490"/>
<path d="M9.47866 34.2433C9.09289 34.6538 8.59864 34.8468 8.0632 34.9296C7.71016 34.9841 7.34977 35.0117 6.99232 35.0147C5.84863 35.0252 4.70531 35.0188 3.56125 35.0185C3.36083 35.0185 3.36046 35.0177 3.36046 34.8139V30.1718C3.43806 30.1674 3.49837 30.161 3.55905 30.161C4.85645 30.161 6.15423 30.1588 7.45164 30.1621C7.84697 30.1633 8.23825 30.2028 8.61813 30.3301C9.45144 30.6092 10.0439 31.3867 10.1259 32.2723C10.1965 33.0318 9.99975 33.6894 9.47866 34.2433ZM3.55721 22.8799C4.54166 22.8859 5.52612 22.8791 6.51058 22.8847C6.99784 22.8874 7.48216 22.9273 7.9481 23.0922C8.71411 23.3632 9.21535 24.0865 9.233 24.9083C9.24845 25.6443 9.02044 26.2836 8.56481 26.8487C8.49126 26.9398 8.41366 26.9812 8.29194 26.9812C6.71284 26.9763 5.13374 26.9778 3.55427 26.9778H3.36046V26.7879C3.36046 25.5506 3.36377 24.3134 3.35642 23.0758C3.35531 22.9101 3.40864 22.8791 3.55721 22.8799ZM12.1224 28.8305C11.8536 28.5203 11.5388 28.2509 11.2328 27.9512C11.2703 27.9101 11.324 27.8493 11.3795 27.79C12.382 26.7203 12.8134 25.4719 12.5765 23.9947C12.3382 22.5063 11.6083 21.3665 10.3171 20.6081C9.28449 20.0013 8.1522 19.7531 6.97504 19.7426C4.69796 19.7225 2.4205 19.7355 0.143053 19.7351C0.0985559 19.7351 0.0536909 19.7407 0 19.7437V38.2229C0.0562652 38.2263 0.101498 38.2307 0.146731 38.2307C2.59849 38.2307 5.05026 38.2334 7.50202 38.2285C8.16433 38.227 8.82113 38.1498 9.46321 37.9788C10.5727 37.6832 11.5627 37.1719 12.3173 36.2725C13.3849 34.9987 13.6713 33.498 13.5077 31.8797C13.3889 30.7063 12.8799 29.7053 12.1224 28.8305Z" fill="#315490"/>
<path d="M21.8385 28.1601C20.6948 28.1672 19.5514 28.1631 18.4078 28.1631H18.2033V27.9829C18.2033 26.3448 18.2055 24.7071 18.2 23.0691C18.1996 22.916 18.2459 22.8791 18.3908 22.8798C19.586 22.8854 20.7808 22.8806 21.9756 22.8843C22.418 22.8854 22.8538 22.9425 23.2723 23.1004C24.5546 23.5841 25.1666 24.84 24.7856 26.2194C24.4814 27.3204 23.7077 27.8828 22.6482 28.0948C22.3842 28.1482 22.1088 28.1586 21.8385 28.1601ZM24.4572 30.9862C26.0782 30.4237 27.2903 29.3966 27.9423 27.7653C28.4046 26.6098 28.4822 25.4028 28.2645 24.182C27.992 22.657 27.2167 21.4698 25.8851 20.6808C24.7727 20.0217 23.5518 19.7526 22.2801 19.7422C19.8287 19.7224 17.377 19.7355 14.9252 19.7351C14.8759 19.7351 14.827 19.7396 14.7821 19.7418V38.2206H18.2081V31.3571H18.3938C18.9064 31.3571 19.4198 31.365 19.9324 31.353C20.0972 31.3489 20.1887 31.4083 20.2803 31.5408C21.7292 33.6405 23.1903 35.7316 24.6278 37.8392C24.8323 38.1385 25.0356 38.2482 25.3931 38.2408C26.5618 38.2147 27.7312 38.2307 28.9382 38.2307C27.2903 35.8507 25.6593 33.4964 24.017 31.125C24.1766 31.075 24.3182 31.0343 24.4572 30.9862Z" fill="#315490"/>
<path d="M163.82 16.3006C163.696 17.9692 164.274 19.5259 165.302 20.6743C165.651 21.0655 166.25 21.111 166.653 20.7773C167.838 19.7976 168.639 18.3462 168.763 16.6775C168.886 15.0092 168.308 13.4522 167.281 12.3042C166.931 11.9126 166.333 11.8671 165.929 12.2008C164.745 13.1805 163.943 14.6319 163.82 16.3006Z" fill="#55B953"/>
<path d="M145.862 49.7804C156.858 49.5061 160.032 42.7785 163.092 39.3221C163.379 38.997 163.889 39.3613 163.683 39.7442C161.359 44.0519 155.83 52.0578 146.304 53.4279C133.156 55.3197 124.251 42.777 124.251 42.777C123.498 41.8171 124.804 41.7883 124.804 41.7883C124.804 41.7883 133.837 50.0805 145.862 49.7804Z" fill="#E27845"/>
<path d="M167.84 31.6006C167.737 29.7991 167.46 29.8479 166.95 29.6957C166.44 29.543 166.611 31.2498 166.611 31.2498C166.79 34.0761 166.477 37.2171 165.2 40.3936C162.314 47.5758 154.816 51.6738 150.514 53.5048C150.378 53.6735 150.302 53.8325 150.384 53.9392C150.657 54.2915 154.078 53.1077 158.06 50.5064C161.966 47.6874 164.772 44.3143 166.256 40.6216C167.519 37.4799 168.002 34.3993 167.84 31.6006Z" fill="#55B953"/>
</svg>
